<svg xmlns="http://www.w3.org/2000/svg" xmlns:xlink="http://www.w3.org/1999/xlink" width="1000" zoomAndPan="magnify" viewBox="0 0 750 749.999995" height="1000" preserveAspectRatio="xMidYMid meet" version="1.0"><defs><clipPath id="a9de6dc9cb"><path d="M 193.519531 135.292969 L 750 135.292969 L 750 574.042969 L 193.519531 574.042969 Z M 193.519531 135.292969 " clip-rule="nonzero"/></clipPath><clipPath id="5932a9d5cd"><path d="M 0 0.339844 L 128.613281 0.339844 L 128.613281 384 L 0 384 Z M 0 0.339844 " clip-rule="nonzero"/></clipPath></defs><g clip-path="url(#a9de6dc9cb)"><path fill="#1954b6" d="M 1071.699219 574.382812 L 859.785156 574.382812 C 859.785156 448.894531 758.097656 347.207031 632.609375 347.207031 C 507.160156 347.207031 405.433594 448.894531 405.433594 574.382812 L 193.519531 574.382812 C 193.519531 331.878906 390.105469 135.292969 632.609375 135.292969 C 875.113281 135.292969 1071.699219 331.878906 1071.699219 574.382812 Z M 1071.699219 574.382812 " fill-opacity="1" fill-rule="nonzero"/></g><g clip-path="url(#5932a9d5cd)"><path fill="#1954b6" d="M 128.542969 0 L -56.945312 0 C -56.945312 109.84375 -145.953125 198.851562 -255.796875 198.851562 C -365.601562 198.851562 -454.644531 109.84375 -454.644531 0 L -640.136719 0 C -640.136719 212.265625 -468.0625 384.339844 -255.796875 384.339844 C -43.53125 384.339844 128.542969 212.265625 128.542969 0 Z M 128.542969 0 " fill-opacity="1" fill-rule="nonzero"/></g></svg>