<svg xmlns="http://www.w3.org/2000/svg" xmlns:xlink="http://www.w3.org/1999/xlink" width="1000" zoomAndPan="magnify" viewBox="0 0 750 749.999995" height="1000" preserveAspectRatio="xMidYMid meet" version="1.0"><defs><clipPath id="ce70397d5a"><path d="M 649.589844 0 L 736.589844 0 L 736.589844 13.566406 L 649.589844 13.566406 Z M 649.589844 0 " clip-rule="nonzero"/></clipPath></defs><path fill="#1954b6" d="M 707.5625 370.253906 C 693.660156 323.742188 667.652344 281.5 617.554688 252.066406 C 538.464844 205.597656 478.160156 218.476562 443.164062 209.078125 C 323.03125 176.828125 301.675781 90.792969 177.980469 77.761719 C 146.738281 74.476562 114.089844 77.414062 86.050781 91.59375 C 58.011719 105.773438 35.234375 132.332031 30.648438 163.421875 C 22.214844 220.785156 73.761719 269.710938 82.945312 326.960938 C 89.265625 366.414062 74.949219 405.800781 64.691406 444.414062 C 54.449219 483.027344 48.886719 526.914062 70.269531 560.65625 C 92.785156 596.175781 138.632812 609.390625 180.683594 610.191406 C 222.734375 610.988281 264.828125 602.320312 306.660156 606.695312 C 391.007812 615.519531 441.300781 674.660156 525.277344 662.855469 C 592.855469 653.359375 651.167969 638.808594 694.0625 563.570312 C 727.886719 504.273438 724.378906 426.539062 707.5625 370.253906 Z M 707.5625 370.253906 " fill-opacity="1" fill-rule="nonzero"/><g clip-path="url(#ce70397d5a)"><path fill="#ffffff" d="M 736.566406 1.308594 C 736.566406 1.71875 736.496094 2.128906 736.355469 2.535156 C 736.214844 2.941406 736.007812 3.34375 735.730469 3.746094 C 735.453125 4.148438 735.105469 4.542969 734.691406 4.933594 C 734.277344 5.324219 733.800781 5.710938 733.253906 6.085938 C 732.710938 6.464844 732.101562 6.835938 731.429688 7.195312 C 730.757812 7.554688 730.027344 7.90625 729.234375 8.246094 C 728.445312 8.585938 727.597656 8.914062 726.695312 9.230469 C 725.789062 9.546875 724.835938 9.847656 723.828125 10.136719 C 722.820312 10.425781 721.765625 10.699219 720.664062 10.960938 C 719.566406 11.21875 718.421875 11.460938 717.238281 11.6875 C 716.054688 11.917969 714.832031 12.125 713.578125 12.320312 C 712.320312 12.511719 711.035156 12.6875 709.71875 12.84375 C 708.402344 13 707.0625 13.136719 705.699219 13.253906 C 704.339844 13.375 702.957031 13.472656 701.5625 13.554688 C 700.164062 13.632812 698.757812 13.691406 697.339844 13.734375 C 695.921875 13.773438 694.5 13.792969 693.078125 13.792969 C 691.652344 13.792969 690.230469 13.773438 688.8125 13.734375 C 687.398438 13.691406 685.988281 13.632812 684.59375 13.554688 C 683.195312 13.472656 681.816406 13.375 680.453125 13.253906 C 679.089844 13.136719 677.75 13 676.433594 12.84375 C 675.117188 12.6875 673.832031 12.511719 672.578125 12.320312 C 671.320312 12.125 670.101562 11.917969 668.917969 11.6875 C 667.730469 11.460938 666.589844 11.21875 665.488281 10.960938 C 664.386719 10.699219 663.332031 10.425781 662.324219 10.136719 C 661.320312 9.847656 660.363281 9.546875 659.460938 9.230469 C 658.554688 8.914062 657.710938 8.585938 656.917969 8.246094 C 656.125 7.90625 655.394531 7.554688 654.722656 7.195312 C 654.050781 6.835938 653.445312 6.464844 652.898438 6.085938 C 652.355469 5.710938 651.875 5.324219 651.460938 4.933594 C 651.046875 4.542969 650.703125 4.148438 650.425781 3.746094 C 650.144531 3.34375 649.9375 2.941406 649.796875 2.535156 C 649.660156 2.128906 649.589844 1.71875 649.589844 1.308594 C 649.589844 0.902344 649.660156 0.492188 649.796875 0.0859375 C 649.9375 -0.320312 650.144531 -0.722656 650.425781 -1.125 C 650.703125 -1.527344 651.046875 -1.921875 651.460938 -2.3125 C 651.875 -2.703125 652.355469 -3.089844 652.898438 -3.464844 C 653.445312 -3.84375 654.050781 -4.214844 654.722656 -4.574219 C 655.394531 -4.933594 656.125 -5.285156 656.917969 -5.625 C 657.710938 -5.964844 658.554688 -6.292969 659.460938 -6.609375 C 660.363281 -6.925781 661.320312 -7.226562 662.324219 -7.515625 C 663.332031 -7.804688 664.386719 -8.078125 665.488281 -8.339844 C 666.589844 -8.597656 667.730469 -8.839844 668.917969 -9.070312 C 670.101562 -9.296875 671.320312 -9.503906 672.578125 -9.699219 C 673.832031 -9.890625 675.117188 -10.066406 676.433594 -10.222656 C 677.75 -10.378906 679.089844 -10.515625 680.453125 -10.636719 C 681.816406 -10.753906 683.195312 -10.851562 684.59375 -10.933594 C 685.988281 -11.011719 687.398438 -11.070312 688.8125 -11.113281 C 690.230469 -11.152344 691.652344 -11.171875 693.078125 -11.171875 C 694.5 -11.171875 695.921875 -11.152344 697.339844 -11.113281 C 698.757812 -11.070312 700.164062 -11.011719 701.5625 -10.933594 C 702.957031 -10.851562 704.339844 -10.753906 705.699219 -10.636719 C 707.0625 -10.515625 708.402344 -10.378906 709.71875 -10.222656 C 711.035156 -10.066406 712.320312 -9.890625 713.578125 -9.699219 C 714.832031 -9.503906 716.054688 -9.296875 717.238281 -9.070312 C 718.421875 -8.839844 719.566406 -8.597656 720.664062 -8.339844 C 721.765625 -8.078125 722.820312 -7.804688 723.828125 -7.515625 C 724.835938 -7.226562 725.789062 -6.925781 726.695312 -6.609375 C 727.597656 -6.292969 728.445312 -5.964844 729.234375 -5.625 C 730.027344 -5.285156 730.757812 -4.933594 731.429688 -4.574219 C 732.101562 -4.214844 732.710938 -3.84375 733.253906 -3.464844 C 733.800781 -3.089844 734.277344 -2.703125 734.691406 -2.3125 C 735.105469 -1.921875 735.453125 -1.527344 735.730469 -1.125 C 736.007812 -0.722656 736.214844 -0.320312 736.355469 0.0859375 C 736.496094 0.492188 736.566406 0.902344 736.566406 1.308594 Z M 736.566406 1.308594 " fill-opacity="1" fill-rule="nonzero"/></g></svg>