<svg xmlns="http://www.w3.org/2000/svg" xmlns:xlink="http://www.w3.org/1999/xlink" width="1000" zoomAndPan="magnify" viewBox="0 0 750 749.999995" height="1000" preserveAspectRatio="xMidYMid meet" version="1.0"><path fill="#1954b6" d="M 378.128906 570.386719 C 371.175781 547.132812 358.175781 526.011719 333.125 511.296875 C 293.582031 488.0625 263.433594 494.503906 245.9375 489.804688 C 185.875 473.679688 175.195312 430.664062 113.351562 424.148438 C 97.734375 422.507812 81.410156 423.976562 67.390625 431.066406 C 53.375 438.152344 41.984375 451.433594 39.691406 466.976562 C 35.476562 495.65625 61.25 520.117188 65.839844 548.742188 C 69 568.46875 61.84375 588.160156 56.714844 607.464844 C 51.59375 626.769531 48.8125 648.710938 59.503906 665.582031 C 70.761719 683.339844 93.683594 689.945312 114.707031 690.347656 C 135.730469 690.746094 156.773438 686.410156 177.6875 688.597656 C 219.859375 693.011719 245.003906 722.578125 286.992188 716.675781 C 320.777344 711.929688 349.933594 704.652344 371.378906 667.039062 C 388.289062 637.390625 386.535156 598.527344 378.128906 570.386719 Z M 378.128906 570.386719 " fill-opacity="1" fill-rule="nonzero"/><path fill="#1954b6" d="M 750 0 L 569.019531 0 C 569.019531 107.175781 482.175781 194.019531 375 194.019531 C 267.863281 194.019531 180.984375 107.175781 180.984375 0 L 0 0 C 0 207.105469 167.894531 375 375 375 C 582.105469 375 750 207.105469 750 0 Z M 750 0 " fill-opacity="1" fill-rule="nonzero"/></svg>